# xmcd
#
# Track frame offsets: 
#        150
#        17480
#        37045
#        51465
#        70743
#        88330
#        107529
#        125213
#        140205
#        158930
#        181829
#
# Disc length: 2675 seconds
#
# Revision: 0
# Processed by: cddbd v1.5.2PL0 Copyright (c) Steve Scherf et al.
# Submitted via: ExactAudioCopyFreeDBPlugin 1.0
#
DISCID=a00a710b
DTITLE=Andrew Combs - Canyons of My Mind
DYEAR=2017
DGENRE=Country
TTITLE0=Heart of Wonder
TTITLE1=Sleepwalker
TTITLE2=Dirty Rain
TTITLE3=Hazel
TTITLE4=Rose Colored Blues
TTITLE5=Better Way
TTITLE6=Lauralee
TTITLE7=Blood Hunters
TTITLE8=Silk Flowers
TTITLE9=Bourgeois King
TTITLE10=What it Means to You
EXTD=
EXTT0=
EXTT1=
EXTT2=
EXTT3=
EXTT4=
EXTT5=
EXTT6=
EXTT7=
EXTT8=
EXTT9=
EXTT10=
PLAYORDER=
